<svg width="30" height="30" viewBox="0 0 30 30" fill="none" xmlns="http://www.w3.org/2000/svg">
<g filter="url(#filter0_i)">
<path d="M26.25 3.75H17.5C16.5745 3.75313 15.6833 4.10071 15 4.725C14.3167 4.10071 13.4255 3.75313 12.5 3.75H3.75C3.41848 3.75 3.10054 3.8817 2.86612 4.11612C2.6317 4.35054 2.5 4.66848 2.5 5V23.75C2.5 24.0815 2.6317 24.3995 2.86612 24.6339C3.10054 24.8683 3.41848 25 3.75 25H10.9475C11.6102 25.0015 12.2455 25.2648 12.715 25.7325L14.1163 27.1338C14.1275 27.145 14.1425 27.1488 14.1537 27.16C14.2612 27.26 14.3812 27.3475 14.5212 27.405H14.5238C14.8287 27.5313 15.1713 27.5313 15.4762 27.405H15.4788C15.6188 27.3475 15.7388 27.2588 15.8463 27.16C15.8575 27.1488 15.8725 27.145 15.8837 27.1338L17.285 25.7325C17.7545 25.2648 18.3898 25.0015 19.0525 25H26.25C26.5815 25 26.8995 24.8683 27.1339 24.6339C27.3683 24.3995 27.5 24.0815 27.5 23.75V5C27.5 4.66848 27.3683 4.35054 27.1339 4.11612C26.8995 3.8817 26.5815 3.75 26.25 3.75ZM25 22.5H19.0525C18.0536 22.5029 17.0781 22.8027 16.25 23.3612V7.5C16.25 6.81125 16.81 6.25 17.5 6.25H25V22.5Z" fill="#9C9C9C"/>
</g>
<defs>
<filter id="filter0_i" x="0" y="0" width="30" height="34" filterUnits="userSpaceOnUse" color-interpolation-filters="sRGB">
<feFlood flood-opacity="0" result="BackgroundImageFix"/>
<feBlend mode="normal" in="SourceGraphic" in2="BackgroundImageFix" result="shape"/>
<feColorMatrix in="SourceAlpha" type="matrix" values="0 0 0 0 0 0 0 0 0 0 0 0 0 0 0 0 0 0 127 0" result="hardAlpha"/>
<feOffset dy="4"/>
<feGaussianBlur stdDeviation="2"/>
<feComposite in2="hardAlpha" operator="arithmetic" k2="-1" k3="1"/>
<feColorMatrix type="matrix" values="0 0 0 0 0 0 0 0 0 0 0 0 0 0 0 0 0 0 0.25 0"/>
<feBlend mode="normal" in2="shape" result="effect1_innerShadow"/>
</filter>
</defs>
</svg>
