<svg width="40" height="40" viewBox="0 0 40 40" fill="none" xmlns="http://www.w3.org/2000/svg">
<g filter="url(#filter0_i)">
<path d="M19.9996 39.9998C31.0453 39.9998 39.9996 31.0455 39.9996 19.9998C39.9996 8.95408 31.0453 -0.000244141 19.9996 -0.000244141C8.95388 -0.000244141 -0.000427246 8.95408 -0.000427246 19.9998C-0.000427246 31.0455 8.95388 39.9998 19.9996 39.9998Z" fill="#A8A8A8"/>
<path d="M25.2046 9.59166C21.9941 10.0038 19.5531 12.3909 19.3891 15.2702C19.3702 15.6137 19.3323 15.8884 19.3071 15.8884C19.1053 15.8884 17.4969 15.5793 16.9418 15.4305C14.1854 14.7035 11.53 13.1751 9.69448 11.2574C9.38541 10.9369 9.05111 10.6335 8.9565 10.5877C8.7042 10.4732 8.35729 10.4904 8.06714 10.6335C7.85269 10.7423 7.77069 10.851 7.50577 11.3376C7.33547 11.6524 7.12101 12.1676 7.03271 12.4825C6.88764 12.9805 6.86241 13.1751 6.86241 13.9422C6.8561 15.0527 6.98856 15.6079 7.53731 16.7585C7.57516 16.833 7.53731 16.873 7.37331 16.936C6.87502 17.1249 6.72364 17.5084 6.81825 18.3442C6.97594 19.7295 7.58777 20.943 8.64112 21.9677C9.0385 22.3569 9.07003 22.397 8.98804 22.5001C8.7862 22.7462 8.76097 23.0152 8.90604 23.3988C9.10788 23.9483 9.57463 24.7154 10.0162 25.2134C10.6028 25.8831 11.2335 26.3468 12.1796 26.8162L12.6401 27.0395L12.3941 27.1539C11.6246 27.4974 10.4135 27.8065 9.27818 27.9439C8.67266 28.0126 8.23744 28.0298 7.41116 28.0011C6.36411 27.9668 6.33258 27.9668 6.12443 28.0927C5.79644 28.2988 5.67029 28.4877 5.67029 28.7797C5.67029 29.2834 5.83428 29.4322 7.13363 30.0848C11.3534 32.2085 16.7147 32.5978 21.4201 31.1152C22.3347 30.8233 23.8485 30.1707 24.6685 29.7127C28.1755 27.7378 30.8562 24.5036 32.0735 20.777C32.5213 19.4032 32.7989 17.7946 32.8052 16.5467V15.9743L33.0638 15.8026C33.4864 15.5164 34.7101 14.3486 35.1579 13.7991C35.6436 13.2094 35.7445 12.9633 35.6436 12.6313C35.5237 12.2306 34.9624 11.91 34.565 12.0245C34.401 12.076 34.4073 12.0531 34.6722 11.4807C34.9182 10.9541 34.9371 10.5934 34.7479 10.3358C34.5776 10.1011 34.2433 9.93512 33.9595 9.93512C33.8333 9.93512 33.4359 10.0782 32.9313 10.3072C32.1429 10.6678 30.9382 11.08 30.6732 11.08C30.6039 11.08 30.3326 10.9369 30.0803 10.7594C29.6073 10.4389 28.7305 10.0153 28.1755 9.84925C27.3303 9.59738 26.0246 9.4829 25.2046 9.59166ZM27.3807 11.4234C28.0619 11.6009 28.7495 11.9444 29.3676 12.4309C29.9983 12.9175 30.156 12.9633 30.7679 12.8374C31.0075 12.7916 31.2031 12.7572 31.2157 12.7687C31.2283 12.7744 31.1337 12.8431 31.0139 12.9118C30.5408 13.1751 30.3768 13.593 30.5849 14.0166C30.7489 14.3486 30.9697 14.4802 31.4365 14.5146L31.8023 14.5432L31.4806 14.7607C30.9508 15.1157 30.9129 15.213 30.9129 16.146C30.9129 18.8422 30.0993 21.4811 28.5665 23.7422C27.3366 25.5569 25.5705 27.1711 23.5836 28.2874C19.9757 30.3138 15.2072 30.8519 10.9875 29.707C10.7037 29.6269 10.4766 29.5524 10.4892 29.5353C10.5081 29.5238 10.874 29.4265 11.3029 29.3177C12.823 28.9342 14.135 28.3618 15.3838 27.526C16.084 27.0566 16.2291 26.6617 15.8948 26.1579C15.7434 25.9289 15.4154 25.8087 14.8477 25.7629C14.0025 25.7 13.151 25.4137 12.4319 24.973C12.085 24.7554 11.3597 24.0914 11.3597 23.9941C11.3597 23.9426 11.4858 23.9082 11.7255 23.8853C12.1986 23.8396 12.6969 23.7136 12.8987 23.5991C13.3907 23.3072 13.3718 22.4772 12.8735 22.1967C12.7978 22.1566 12.495 22.0593 12.2049 21.9791C11.1957 21.7158 10.3883 21.2293 9.74494 20.5023C9.43587 20.1531 9.03219 19.4833 8.93127 19.157C8.88712 19.0368 8.89973 19.0254 9.03219 19.054C9.39172 19.1456 10.2811 19.22 10.4955 19.1857C11.0254 19.0941 11.3723 18.5903 11.2335 18.1267C11.183 17.9435 11.0569 17.8175 10.6154 17.4741C9.93416 16.9532 9.5431 16.5181 9.22141 15.9228C8.84296 15.2244 8.74835 14.8352 8.74204 13.9994C8.74204 13.6044 8.76097 13.2152 8.7925 13.1236L8.83666 12.969L9.51787 13.5243C11.7003 15.3217 14.1223 16.5238 16.8787 17.1764C18.0015 17.4455 19.0674 17.6057 19.9694 17.6458C20.6948 17.6744 20.7389 17.6687 20.9471 17.537C21.0669 17.4626 21.2246 17.3081 21.294 17.1936C21.4075 16.999 21.4075 16.9474 21.3381 16.5067C21.1804 15.5164 21.2688 14.7207 21.6283 13.9536C22.2527 12.6084 23.6088 11.6066 25.2046 11.3319C25.7912 11.2288 26.7752 11.2689 27.3807 11.4234Z" fill="white"/>
</g>
<defs>
<filter id="filter0_i" x="-0.000427246" y="-0.000244141" width="40" height="44.0001" filterUnits="userSpaceOnUse" color-interpolation-filters="sRGB">
<feFlood flood-opacity="0" result="BackgroundImageFix"/>
<feBlend mode="normal" in="SourceGraphic" in2="BackgroundImageFix" result="shape"/>
<feColorMatrix in="SourceAlpha" type="matrix" values="0 0 0 0 0 0 0 0 0 0 0 0 0 0 0 0 0 0 127 0" result="hardAlpha"/>
<feOffset dy="4"/>
<feGaussianBlur stdDeviation="2"/>
<feComposite in2="hardAlpha" operator="arithmetic" k2="-1" k3="1"/>
<feColorMatrix type="matrix" values="0 0 0 0 0 0 0 0 0 0 0 0 0 0 0 0 0 0 0.25 0"/>
<feBlend mode="normal" in2="shape" result="effect1_innerShadow"/>
</filter>
</defs>
</svg>
